<?xml version="1.0" standalone="no"?>
<!DOCTYPE svg PUBLIC "-//W3C//DTD SVG 20010904//EN"
 "http://www.w3.org/TR/2001/REC-SVG-20010904/DTD/svg10.dtd">
<svg version="1.0" xmlns="http://www.w3.org/2000/svg"
 width="594.000000pt" height="594.000000pt" viewBox="0 0 594.000000 594.000000"
 preserveAspectRatio="xMidYMid meet">
<metadata>
Created by potrace 1.11, written by Peter Selinger 2001-2013
</metadata>
<g transform="translate(0.000000,594.000000) scale(0.100000,-0.100000)"
fill="#000000" stroke="none">
<path d="M5499 5936 c-2 -2 -35 -6 -74 -9 -240 -20 -406 -71 -580 -176 -37
-23 -69 -41 -72 -41 -10 0 -229 -161 -263 -193 -19 -18 -44 -51 -55 -72 -16
-32 -291 -386 -315 -405 -9 -8 -264 -338 -405 -525 -70 -93 -136 -181 -146
-195 -92 -121 -357 -483 -445 -605 -43 -60 -83 -115 -89 -121 -5 -7 -60 -83
-122 -170 -61 -88 -127 -181 -147 -209 -137 -195 -376 -552 -441 -660 -43 -71
-117 -186 -165 -255 -48 -69 -114 -165 -145 -215 -264 -410 -357 -540 -459
-637 -33 -32 -41 -36 -60 -26 -57 30 -102 103 -193 313 -88 204 -85 198 -179
391 -93 191 -127 236 -194 254 -61 17 -209 7 -297 -19 -213 -63 -475 -255
-519 -378 -16 -48 -12 -164 11 -258 9 -38 18 -78 20 -87 8 -37 62 -232 95
-343 12 -38 23 -79 26 -90 2 -11 8 -31 13 -45 10 -27 71 -227 72 -235 0 -6 79
-238 114 -334 75 -211 240 -512 290 -531 13 -5 75 -19 137 -31 176 -35 443
-32 593 6 119 30 151 51 229 152 39 51 81 107 94 125 61 87 188 272 310 453
75 110 170 247 213 305 42 58 114 166 159 240 45 74 114 182 153 240 39 58 97
143 129 190 32 47 72 106 90 131 35 48 173 243 222 313 458 651 1030 1430
1215 1654 48 59 132 170 186 247 98 140 223 300 276 354 20 20 135 163 174
216 16 22 32 42 35 45 3 3 21 25 40 50 19 25 37 47 40 50 3 3 53 66 110 140
99 126 138 175 213 260 136 157 304 391 383 535 56 103 55 163 -4 187 -24 9
-264 22 -273 14z"/>
</g>
</svg>
